<?xml version="1.0" encoding="utf-8"?>
<!-- Generator: Adobe Illustrator 27.7.0, SVG Export Plug-In . SVG Version: 6.00 Build 0)  -->
<svg version="1.1" id="Layer_3" xmlns="http://www.w3.org/2000/svg" xmlns:xlink="http://www.w3.org/1999/xlink" x="0px" y="0px"
	 viewBox="0 0 144 96" style="enable-background:new 0 0 144 96;" xml:space="preserve">
<style type="text/css">
	.st0{fill:#FFFFFF;}
</style>
<path class="st0" d="M36.2,64.8c-2.7-0.1-5-0.9-6.7-2.3c-0.3-0.3-1.1-1.1-1.4-1.4c-0.7-0.9-1.2-1.8-1.5-2.7c-1-3-0.5-6.9,1.5-11.2
	c1.7-3.7,4.2-7.3,8.7-12.3c0.7-0.7,2.6-2.9,2.6-2.9c0,0-0.1,0.2-0.2,0.4c-1.2,1.9-2.2,4.2-2.7,6.2c-0.9,3.2-0.8,5.9,0.3,8
	c0.7,1.5,2,2.7,3.4,3.4c2.5,1.2,6.2,1.3,10.6,0.3c0.3-0.1,15.6-4.1,33.9-9c18.3-4.9,33.3-8.9,33.3-8.9c0,0-42.6,18.2-64.7,27.7
	c-3.5,1.5-4.4,1.9-6.1,2.5C43,64.2,39.2,64.9,36.2,64.8"/>
</svg>
